<svg xmlns="http://www.w3.org/2000/svg" xmlns:xlink="http://www.w3.org/1999/xlink" width="500" height="500" preserveAspectRatio="xMidYMid meet" version="1.0" viewBox="0 0 375 375" zoomAndPan="magnify"><g fill="#fff" fill-opacity="1"><g><g><path d="M 2.75 -27.546875 L 10.546875 -27.546875 L 10.546875 0 L 2.75 0 Z M 2.75 -27.546875" transform="translate(102.093184, 201.374987)"/></g></g></g><g fill="#fff" fill-opacity="1"><g><g><path d="M 28.953125 -27.546875 L 28.953125 0 L 22.546875 0 L 10.390625 -14.671875 L 10.390625 0 L 2.75 0 L 2.75 -27.546875 L 9.171875 -27.546875 L 21.328125 -12.859375 L 21.328125 -27.546875 Z M 28.953125 -27.546875" transform="translate(115.429373, 201.374987)"/></g></g></g><g fill="#fff" fill-opacity="1"><g><g><path d="M 12.4375 0.546875 C 10.207031 0.546875 8.039062 0.269531 5.9375 -0.28125 C 3.84375 -0.832031 2.140625 -1.566406 0.828125 -2.484375 L 3.390625 -8.21875 C 4.617188 -7.40625 6.046875 -6.75 7.671875 -6.25 C 9.296875 -5.757812 10.894531 -5.515625 12.46875 -5.515625 C 15.457031 -5.515625 16.953125 -6.257812 16.953125 -7.75 C 16.953125 -8.539062 16.523438 -9.125 15.671875 -9.5 C 14.828125 -9.882812 13.457031 -10.285156 11.5625 -10.703125 C 9.488281 -11.148438 7.753906 -11.628906 6.359375 -12.140625 C 4.972656 -12.648438 3.78125 -13.46875 2.78125 -14.59375 C 1.789062 -15.71875 1.296875 -17.238281 1.296875 -19.15625 C 1.296875 -20.832031 1.753906 -22.347656 2.671875 -23.703125 C 3.585938 -25.054688 4.957031 -26.125 6.78125 -26.90625 C 8.601562 -27.695312 10.84375 -28.09375 13.5 -28.09375 C 15.300781 -28.09375 17.082031 -27.890625 18.84375 -27.484375 C 20.601562 -27.078125 22.148438 -26.476562 23.484375 -25.6875 L 21.09375 -19.90625 C 18.46875 -21.320312 15.921875 -22.03125 13.453125 -22.03125 C 11.910156 -22.03125 10.785156 -21.800781 10.078125 -21.34375 C 9.367188 -20.882812 9.015625 -20.285156 9.015625 -19.546875 C 9.015625 -18.816406 9.429688 -18.265625 10.265625 -17.890625 C 11.109375 -17.523438 12.460938 -17.148438 14.328125 -16.765625 C 16.421875 -16.316406 18.15625 -15.835938 19.53125 -15.328125 C 20.90625 -14.816406 22.097656 -14.003906 23.109375 -12.890625 C 24.117188 -11.773438 24.625 -10.257812 24.625 -8.34375 C 24.625 -6.6875 24.164062 -5.1875 23.25 -3.84375 C 22.332031 -2.507812 20.953125 -1.441406 19.109375 -0.640625 C 17.273438 0.148438 15.050781 0.546875 12.4375 0.546875 Z M 12.4375 0.546875" transform="translate(147.13723, 201.374987)"/></g></g></g><g fill="#fff" fill-opacity="1"><g><g><path d="M 2.75 -27.546875 L 10.546875 -27.546875 L 10.546875 0 L 2.75 0 Z M 2.75 -27.546875" transform="translate(172.590067, 201.374987)"/></g></g></g><g fill="#fff" fill-opacity="1"><g><g><path d="M 21.203125 -14.359375 L 28.09375 -14.359375 L 28.09375 -2.953125 C 26.519531 -1.828125 24.707031 -0.960938 22.65625 -0.359375 C 20.613281 0.242188 18.570312 0.546875 16.53125 0.546875 C 13.644531 0.546875 11.046875 -0.0625 8.734375 -1.28125 C 6.421875 -2.5 4.609375 -4.195312 3.296875 -6.375 C 1.992188 -8.550781 1.34375 -11.015625 1.34375 -13.765625 C 1.34375 -16.523438 1.992188 -18.992188 3.296875 -21.171875 C 4.609375 -23.347656 6.429688 -25.046875 8.765625 -26.265625 C 11.109375 -27.484375 13.75 -28.09375 16.6875 -28.09375 C 19.25 -28.09375 21.550781 -27.660156 23.59375 -26.796875 C 25.644531 -25.929688 27.351562 -24.6875 28.71875 -23.0625 L 23.765625 -18.5625 C 21.898438 -20.613281 19.671875 -21.640625 17.078125 -21.640625 C 14.710938 -21.640625 12.804688 -20.921875 11.359375 -19.484375 C 9.921875 -18.054688 9.203125 -16.148438 9.203125 -13.765625 C 9.203125 -12.242188 9.53125 -10.882812 10.1875 -9.6875 C 10.84375 -8.5 11.757812 -7.570312 12.9375 -6.90625 C 14.125 -6.238281 15.476562 -5.90625 17 -5.90625 C 18.488281 -5.90625 19.890625 -6.207031 21.203125 -6.8125 Z M 21.203125 -14.359375" transform="translate(185.926256, 201.374987)"/></g></g></g><g fill="#fff" fill-opacity="1"><g><g><path d="M 28.953125 -27.546875 L 28.953125 0 L 21.171875 0 L 21.171875 -10.734375 L 10.546875 -10.734375 L 10.546875 0 L 2.75 0 L 2.75 -27.546875 L 10.546875 -27.546875 L 10.546875 -17.1875 L 21.171875 -17.1875 L 21.171875 -27.546875 Z M 28.953125 -27.546875" transform="translate(216.217884, 201.374987)"/></g></g></g><g fill="#fff" fill-opacity="1"><g><g><path d="M 8.609375 -21.359375 L 0.15625 -21.359375 L 0.15625 -27.546875 L 24.828125 -27.546875 L 24.828125 -21.359375 L 16.40625 -21.359375 L 16.40625 0 L 8.609375 0 Z M 8.609375 -21.359375" transform="translate(247.92574, 201.374987)"/></g></g></g><g fill="#fff" fill-opacity="1"><g><g><path d="M 4.5625 0.15625 C 3.757812 0.15625 3.039062 -0.0078125 2.40625 -0.34375 C 1.769531 -0.6875 1.269531 -1.160156 0.90625 -1.765625 C 0.550781 -2.367188 0.375 -3.050781 0.375 -3.8125 C 0.375 -4.570312 0.550781 -5.253906 0.90625 -5.859375 C 1.269531 -6.460938 1.769531 -6.929688 2.40625 -7.265625 C 3.039062 -7.609375 3.757812 -7.78125 4.5625 -7.78125 C 5.257812 -7.78125 5.882812 -7.65625 6.4375 -7.40625 C 7 -7.15625 7.46875 -6.800781 7.84375 -6.34375 L 6.46875 -5.09375 C 5.976562 -5.6875 5.378906 -5.984375 4.671875 -5.984375 C 4.253906 -5.984375 3.882812 -5.894531 3.5625 -5.71875 C 3.238281 -5.539062 2.988281 -5.285156 2.8125 -4.953125 C 2.632812 -4.617188 2.546875 -4.238281 2.546875 -3.8125 C 2.546875 -3.382812 2.632812 -3.003906 2.8125 -2.671875 C 2.988281 -2.335938 3.238281 -2.082031 3.5625 -1.90625 C 3.882812 -1.726562 4.253906 -1.640625 4.671875 -1.640625 C 5.378906 -1.640625 5.976562 -1.9375 6.46875 -2.53125 L 7.84375 -1.28125 C 7.46875 -0.820312 7 -0.46875 6.4375 -0.21875 C 5.882812 0.03125 5.257812 0.15625 4.5625 0.15625 Z M 4.5625 0.15625" transform="translate(103.686934, 214.690181)"/></g></g></g><g fill="#fff" fill-opacity="1"><g><g><path d="M 4.609375 0.15625 C 3.796875 0.15625 3.066406 -0.015625 2.421875 -0.359375 C 1.785156 -0.703125 1.285156 -1.171875 0.921875 -1.765625 C 0.554688 -2.367188 0.375 -3.050781 0.375 -3.8125 C 0.375 -4.5625 0.554688 -5.238281 0.921875 -5.84375 C 1.285156 -6.445312 1.785156 -6.921875 2.421875 -7.265625 C 3.066406 -7.609375 3.796875 -7.78125 4.609375 -7.78125 C 5.410156 -7.78125 6.132812 -7.609375 6.78125 -7.265625 C 7.425781 -6.921875 7.929688 -6.445312 8.296875 -5.84375 C 8.660156 -5.238281 8.84375 -4.5625 8.84375 -3.8125 C 8.84375 -3.050781 8.660156 -2.367188 8.296875 -1.765625 C 7.929688 -1.171875 7.425781 -0.703125 6.78125 -0.359375 C 6.132812 -0.015625 5.410156 0.15625 4.609375 0.15625 Z M 4.609375 -1.640625 C 4.992188 -1.640625 5.34375 -1.726562 5.65625 -1.90625 C 5.96875 -2.082031 6.210938 -2.335938 6.390625 -2.671875 C 6.578125 -3.003906 6.671875 -3.382812 6.671875 -3.8125 C 6.671875 -4.238281 6.578125 -4.617188 6.390625 -4.953125 C 6.210938 -5.285156 5.96875 -5.539062 5.65625 -5.71875 C 5.34375 -5.894531 4.992188 -5.984375 4.609375 -5.984375 C 4.222656 -5.984375 3.875 -5.894531 3.5625 -5.71875 C 3.25 -5.539062 3 -5.285156 2.8125 -4.953125 C 2.632812 -4.617188 2.546875 -4.238281 2.546875 -3.8125 C 2.546875 -3.382812 2.632812 -3.003906 2.8125 -2.671875 C 3 -2.335938 3.25 -2.082031 3.5625 -1.90625 C 3.875 -1.726562 4.222656 -1.640625 4.609375 -1.640625 Z M 4.609375 -1.640625" transform="translate(111.721338, 214.690181)"/></g></g></g><g fill="#fff" fill-opacity="1"><g><g><path d="M 8.015625 -7.625 L 8.015625 0 L 6.234375 0 L 2.875 -4.0625 L 2.875 0 L 0.765625 0 L 0.765625 -7.625 L 2.53125 -7.625 L 5.90625 -3.5625 L 5.90625 -7.625 Z M 8.015625 -7.625" transform="translate(120.931509, 214.690181)"/></g></g></g><g fill="#fff" fill-opacity="1"><g><g><path d="M 8.015625 -7.625 L 8.015625 0 L 6.234375 0 L 2.875 -4.0625 L 2.875 0 L 0.765625 0 L 0.765625 -7.625 L 2.53125 -7.625 L 5.90625 -3.5625 L 5.90625 -7.625 Z M 8.015625 -7.625" transform="translate(129.706208, 214.690181)"/></g></g></g><g fill="#fff" fill-opacity="1"><g><g><path d="M 6.890625 -1.671875 L 6.890625 0 L 0.765625 0 L 0.765625 -7.625 L 6.734375 -7.625 L 6.734375 -5.953125 L 2.890625 -5.953125 L 2.890625 -4.671875 L 6.28125 -4.671875 L 6.28125 -3.0625 L 2.890625 -3.0625 L 2.890625 -1.671875 Z M 6.890625 -1.671875" transform="translate(138.480908, 214.690181)"/></g></g></g><g fill="#fff" fill-opacity="1"><g><g><path d="M 4.5625 0.15625 C 3.757812 0.15625 3.039062 -0.0078125 2.40625 -0.34375 C 1.769531 -0.6875 1.269531 -1.160156 0.90625 -1.765625 C 0.550781 -2.367188 0.375 -3.050781 0.375 -3.8125 C 0.375 -4.570312 0.550781 -5.253906 0.90625 -5.859375 C 1.269531 -6.460938 1.769531 -6.929688 2.40625 -7.265625 C 3.039062 -7.609375 3.757812 -7.78125 4.5625 -7.78125 C 5.257812 -7.78125 5.882812 -7.65625 6.4375 -7.40625 C 7 -7.15625 7.46875 -6.800781 7.84375 -6.34375 L 6.46875 -5.09375 C 5.976562 -5.6875 5.378906 -5.984375 4.671875 -5.984375 C 4.253906 -5.984375 3.882812 -5.894531 3.5625 -5.71875 C 3.238281 -5.539062 2.988281 -5.285156 2.8125 -4.953125 C 2.632812 -4.617188 2.546875 -4.238281 2.546875 -3.8125 C 2.546875 -3.382812 2.632812 -3.003906 2.8125 -2.671875 C 2.988281 -2.335938 3.238281 -2.082031 3.5625 -1.90625 C 3.882812 -1.726562 4.253906 -1.640625 4.671875 -1.640625 C 5.378906 -1.640625 5.976562 -1.9375 6.46875 -2.53125 L 7.84375 -1.28125 C 7.46875 -0.820312 7 -0.46875 6.4375 -0.21875 C 5.882812 0.03125 5.257812 0.15625 4.5625 0.15625 Z M 4.5625 0.15625" transform="translate(145.796795, 214.690181)"/></g></g></g><g fill="#fff" fill-opacity="1"><g><g><path d="M 2.390625 -5.90625 L 0.046875 -5.90625 L 0.046875 -7.625 L 6.875 -7.625 L 6.875 -5.90625 L 4.546875 -5.90625 L 4.546875 0 L 2.390625 0 Z M 2.390625 -5.90625" transform="translate(153.831199, 214.690181)"/></g></g></g><g fill="#fff" fill-opacity="1"><g><g><path d="M 12.71875 -7.625 L 10.25 0 L 7.9375 0 L 6.484375 -4.640625 L 4.953125 0 L 2.640625 0 L 0.171875 -7.625 L 2.390625 -7.625 L 3.9375 -2.75 L 5.546875 -7.625 L 7.53125 -7.625 L 9.0625 -2.71875 L 10.65625 -7.625 Z M 12.71875 -7.625" transform="translate(163.91231, 214.690181)"/></g></g></g><g fill="#fff" fill-opacity="1"><g><g><path d="M 0.765625 -7.625 L 2.921875 -7.625 L 2.921875 0 L 0.765625 0 Z M 0.765625 -7.625" transform="translate(176.802202, 214.690181)"/></g></g></g><g fill="#fff" fill-opacity="1"><g><g><path d="M 2.390625 -5.90625 L 0.046875 -5.90625 L 0.046875 -7.625 L 6.875 -7.625 L 6.875 -5.90625 L 4.546875 -5.90625 L 4.546875 0 L 2.390625 0 Z M 2.390625 -5.90625" transform="translate(180.492806, 214.690181)"/></g></g></g><g fill="#fff" fill-opacity="1"><g><g><path d="M 8.015625 -7.625 L 8.015625 0 L 5.859375 0 L 5.859375 -2.96875 L 2.921875 -2.96875 L 2.921875 0 L 0.765625 0 L 0.765625 -7.625 L 2.921875 -7.625 L 2.921875 -4.765625 L 5.859375 -4.765625 L 5.859375 -7.625 Z M 8.015625 -7.625" transform="translate(187.405884, 214.690181)"/></g></g></g><g fill="#fff" fill-opacity="1"><g><g><path d="M 2.390625 -5.90625 L 0.046875 -5.90625 L 0.046875 -7.625 L 6.875 -7.625 L 6.875 -5.90625 L 4.546875 -5.90625 L 4.546875 0 L 2.390625 0 Z M 2.390625 -5.90625" transform="translate(199.348617, 214.690181)"/></g></g></g><g fill="#fff" fill-opacity="1"><g><g><path d="M 8.015625 -7.625 L 8.015625 0 L 5.859375 0 L 5.859375 -2.96875 L 2.921875 -2.96875 L 2.921875 0 L 0.765625 0 L 0.765625 -7.625 L 2.921875 -7.625 L 2.921875 -4.765625 L 5.859375 -4.765625 L 5.859375 -7.625 Z M 8.015625 -7.625" transform="translate(206.261695, 214.690181)"/></g></g></g><g fill="#fff" fill-opacity="1"><g><g><path d="M 6.890625 -1.671875 L 6.890625 0 L 0.765625 0 L 0.765625 -7.625 L 6.734375 -7.625 L 6.734375 -5.953125 L 2.890625 -5.953125 L 2.890625 -4.671875 L 6.28125 -4.671875 L 6.28125 -3.0625 L 2.890625 -3.0625 L 2.890625 -1.671875 Z M 6.890625 -1.671875" transform="translate(215.036395, 214.690181)"/></g></g></g><g fill="#fff" fill-opacity="1"><g><g><path d="M 12.71875 -7.625 L 10.25 0 L 7.9375 0 L 6.484375 -4.640625 L 4.953125 0 L 2.640625 0 L 0.171875 -7.625 L 2.390625 -7.625 L 3.9375 -2.75 L 5.546875 -7.625 L 7.53125 -7.625 L 9.0625 -2.71875 L 10.65625 -7.625 Z M 12.71875 -7.625" transform="translate(225.520315, 214.690181)"/></g></g></g><g fill="#fff" fill-opacity="1"><g><g><path d="M 4.609375 0.15625 C 3.796875 0.15625 3.066406 -0.015625 2.421875 -0.359375 C 1.785156 -0.703125 1.285156 -1.171875 0.921875 -1.765625 C 0.554688 -2.367188 0.375 -3.050781 0.375 -3.8125 C 0.375 -4.5625 0.554688 -5.238281 0.921875 -5.84375 C 1.285156 -6.445312 1.785156 -6.921875 2.421875 -7.265625 C 3.066406 -7.609375 3.796875 -7.78125 4.609375 -7.78125 C 5.410156 -7.78125 6.132812 -7.609375 6.78125 -7.265625 C 7.425781 -6.921875 7.929688 -6.445312 8.296875 -5.84375 C 8.660156 -5.238281 8.84375 -4.5625 8.84375 -3.8125 C 8.84375 -3.050781 8.660156 -2.367188 8.296875 -1.765625 C 7.929688 -1.171875 7.425781 -0.703125 6.78125 -0.359375 C 6.132812 -0.015625 5.410156 0.15625 4.609375 0.15625 Z M 4.609375 -1.640625 C 4.992188 -1.640625 5.34375 -1.726562 5.65625 -1.90625 C 5.96875 -2.082031 6.210938 -2.335938 6.390625 -2.671875 C 6.578125 -3.003906 6.671875 -3.382812 6.671875 -3.8125 C 6.671875 -4.238281 6.578125 -4.617188 6.390625 -4.953125 C 6.210938 -5.285156 5.96875 -5.539062 5.65625 -5.71875 C 5.34375 -5.894531 4.992188 -5.984375 4.609375 -5.984375 C 4.222656 -5.984375 3.875 -5.894531 3.5625 -5.71875 C 3.25 -5.539062 3 -5.285156 2.8125 -4.953125 C 2.632812 -4.617188 2.546875 -4.238281 2.546875 -3.8125 C 2.546875 -3.382812 2.632812 -3.003906 2.8125 -2.671875 C 3 -2.335938 3.25 -2.082031 3.5625 -1.90625 C 3.875 -1.726562 4.222656 -1.640625 4.609375 -1.640625 Z M 4.609375 -1.640625" transform="translate(238.410206, 214.690181)"/></g></g></g><g fill="#fff" fill-opacity="1"><g><g><path d="M 4.09375 -2.03125 L 2.921875 -2.03125 L 2.921875 0 L 0.765625 0 L 0.765625 -7.625 L 4.25 -7.625 C 4.9375 -7.625 5.535156 -7.507812 6.046875 -7.28125 C 6.554688 -7.050781 6.945312 -6.722656 7.21875 -6.296875 C 7.5 -5.867188 7.640625 -5.367188 7.640625 -4.796875 C 7.640625 -4.242188 7.507812 -3.765625 7.25 -3.359375 C 6.988281 -2.953125 6.617188 -2.628906 6.140625 -2.390625 L 7.78125 0 L 5.484375 0 Z M 5.453125 -4.796875 C 5.453125 -5.160156 5.335938 -5.4375 5.109375 -5.625 C 4.890625 -5.820312 4.554688 -5.921875 4.109375 -5.921875 L 2.921875 -5.921875 L 2.921875 -3.6875 L 4.109375 -3.6875 C 4.554688 -3.6875 4.890625 -3.78125 5.109375 -3.96875 C 5.335938 -4.164062 5.453125 -4.441406 5.453125 -4.796875 Z M 5.453125 -4.796875" transform="translate(247.620377, 214.690181)"/></g></g></g><g fill="#fff" fill-opacity="1"><g><g><path d="M 0.765625 -7.625 L 2.921875 -7.625 L 2.921875 -1.703125 L 6.5625 -1.703125 L 6.5625 0 L 0.765625 0 Z M 0.765625 -7.625" transform="translate(255.676559, 214.690181)"/></g></g></g><g fill="#fff" fill-opacity="1"><g><g><path d="M 0.765625 -7.625 L 4.359375 -7.625 C 5.203125 -7.625 5.945312 -7.46875 6.59375 -7.15625 C 7.238281 -6.84375 7.738281 -6.398438 8.09375 -5.828125 C 8.445312 -5.253906 8.625 -4.582031 8.625 -3.8125 C 8.625 -3.039062 8.445312 -2.367188 8.09375 -1.796875 C 7.738281 -1.222656 7.238281 -0.78125 6.59375 -0.46875 C 5.945312 -0.15625 5.203125 0 4.359375 0 L 0.765625 0 Z M 4.28125 -1.71875 C 4.9375 -1.71875 5.460938 -1.898438 5.859375 -2.265625 C 6.253906 -2.640625 6.453125 -3.15625 6.453125 -3.8125 C 6.453125 -4.46875 6.253906 -4.976562 5.859375 -5.34375 C 5.460938 -5.71875 4.9375 -5.90625 4.28125 -5.90625 L 2.921875 -5.90625 L 2.921875 -1.71875 Z M 4.28125 -1.71875" transform="translate(262.317462, 214.690181)"/></g></g></g></svg>